<svg xmlns="http://www.w3.org/2000/svg" viewBox="0 0 226.18 226.18"><defs><style>.cls-1{fill:#fff;}</style></defs><g id="Layer_2" data-name="Layer 2"><g id="Layer_1-2" data-name="Layer 1"><circle class="cls-1" cx="113.09" cy="113.09" r="18.21"/><path class="cls-1" d="M81.46,113.3C64.55,116.57,45.74,123,35.8,132.88c-1.63,1.67-3.15,3.43-4.58,5.21C12.5,133.81,0,124,0,113.45S12.47,93.12,31.16,88.84a60.38,60.38,0,0,0,4.29,4.82C45.45,103.66,64.4,110.09,81.46,113.3Z"/><path class="cls-1" d="M103,161.33c-3.3,10.12-7.79,19.41-13.57,25.18C72,204,46.72,207.05,33.12,193.42c-6.51-6.49-9.43-15.87-8.24-26.4,1.22-10.75,6.61-21.37,15.15-29.91C46,131.19,55.56,126.6,66,123.3a23,23,0,0,0-2,1.76c-12.8,12.79-14.74,31.66-4.32,42.08a23.73,23.73,0,0,0,17.08,6.69c8.52,0,17.71-3.78,25-11C102.17,162.35,102.56,161.84,103,161.33Z"/><path class="cls-1" d="M107.56,136.6c-2.38,10.06-6,17.89-10.06,22C87.05,169.07,71.93,171,63.87,162.91s-6.16-23.18,4.31-33.63c4-4,11.7-7.59,21.58-10A24.23,24.23,0,0,0,107.56,136.6Z"/><path class="cls-1" d="M138.09,195c-4.28,18.69-14.11,31.22-24.64,31.22S93.12,213.68,88.84,195c1.63-1.34,3.27-2.76,4.79-4.28,10-10,16.46-29,19.67-46,2.5,13.09,8.12,34.16,19.58,45.62A62.06,62.06,0,0,0,138.09,195Z"/><path class="cls-1" d="M193.42,193.06c-6.49,6.49-15.9,9.4-26.4,8.21-10.75-1.22-21.37-6.6-29.91-15.12-5.92-5.92-10.51-15.56-13.81-26a23.09,23.09,0,0,0,1.76,2A36.65,36.65,0,0,0,146.66,173a26.36,26.36,0,0,0,3.39.21,23.55,23.55,0,0,0,17.06-6.73c10.41-10.41,8.48-29.28-4.32-42-.44-.45-.95-.86-1.43-1.28,10.09,3.3,19.38,7.77,25.15,13.54C204,154.16,207.05,179.43,193.42,193.06Z"/><path class="cls-1" d="M162.91,162.29c-3.81,3.84-9.37,5.56-15.59,4.85a30.79,30.79,0,0,1-18-9.17c-4-4.05-7.59-11.69-10-21.58A24.17,24.17,0,0,0,136.6,118.6c10.06,2.38,17.89,6,22,10.06C169.07,139.13,171,154.22,162.91,162.29Z"/><path class="cls-1" d="M226.18,112.7c0,10.54-12.5,20.33-31.16,24.62-1.34-1.64-2.76-3.25-4.28-4.79-10-10-29-16.43-46-19.68,16.9-3.24,35.68-9.64,45.62-19.58a64.58,64.58,0,0,0,4.58-5.18C213.65,92.35,226.18,102.17,226.18,112.7Z"/><path class="cls-1" d="M167.14,78.84A31,31,0,0,1,158,96.9c-4.05,4-11.69,7.56-21.58,9.94A24.18,24.18,0,0,0,118.6,89.58c2.38-10.09,6-17.89,10.06-22,10.47-10.48,25.56-12.41,33.63-4.35C166.13,67.08,167.82,72.62,167.14,78.84Z"/><path class="cls-1" d="M186.15,89.07c-6,5.93-15.56,10.48-26,13.81.69-.59,1.4-1.16,2-1.78A36.85,36.85,0,0,0,173,79.52c.92-8.06-1.4-15.36-6.52-20.47-10.41-10.42-29.28-8.49-42.08,4.31-.45.45-.83,1-1.25,1.46,3.27-10.12,7.77-19.4,13.54-25.18,17.44-17.41,42.71-20.53,56.34-6.9S203.56,71.63,186.15,89.07Z"/><path class="cls-1" d="M137.32,31.16a61.8,61.8,0,0,0-4.79,4.29c-10,10-16.43,29-19.68,46-3.24-16.91-9.64-35.69-19.58-45.63-1.67-1.63-3.39-3.15-5.18-4.58C92.35,12.5,102.17,0,112.7,0S133,12.47,137.32,31.16Z"/><path class="cls-1" d="M106.84,89.76a24.23,24.23,0,0,0-17.26,17.83c-10.09-2.41-17.89-6-22-10.09a30.86,30.86,0,0,1-9.14-18c-.71-6.22,1-11.75,4.82-15.59s9.38-5.54,15.6-4.82A31,31,0,0,1,96.9,68.18C101,72.23,104.46,79.88,106.84,89.76Z"/><path class="cls-1" d="M102.88,66c-.59-.71-1.16-1.4-1.78-2A37,37,0,0,0,79.52,53.12c-8.09-.89-15.36,1.4-20.47,6.55S51.58,72.05,52.5,80.12a36.89,36.89,0,0,0,10.86,21.6A17.75,17.75,0,0,0,64.82,103C54.7,99.7,45.42,95.21,39.64,89.43,22.23,72,19.11,46.72,32.74,33.12c6.51-6.51,15.89-9.43,26.39-8.24C69.91,26.1,80.53,31.49,89,40,95,46,99.55,55.56,102.88,66Z"/></g></g></svg>