<svg xmlns="http://www.w3.org/2000/svg" viewBox="0 0 622.21 561.59"><defs><style>.cls-1{fill:#fff;stroke:#000;stroke-miterlimit:10;stroke-width:0.5px;}</style></defs><g id="Layer_2" data-name="Layer 2"><g id="Layer_1-2" data-name="Layer 1"><path class="cls-1" d="M622,163c0,33.76-9,66.49-27.39,100.68-35.81,66.6-86.35,118.68-248,265.62l-35.36,32L275.7,529C114.68,383,63.77,330.64,27.86,264.11,9.35,229.77.25,196.86.25,163,.25,71.71,71.71.25,163,.25A178.85,178.85,0,0,1,297.21,62.6a17.43,17.43,0,0,0,2,2,18.28,18.28,0,0,0,25.78-2A178.83,178.83,0,0,1,459.22.25C550.5.25,622,71.71,622,163Z"/></g></g></svg>